<svg width="52" height="52" viewBox="0 0 52 52" fill="none" xmlns="http://www.w3.org/2000/svg">
<path d="M15.1555 15.1805C14.3094 16.0266 14.3094 17.3984 15.1555 18.2446L22.9233 26.0124L15.1555 33.7802C14.3094 34.6264 14.3094 35.9982 15.1555 36.8444C16.0016 37.6905 17.3735 37.6905 18.2196 36.8444L25.9875 29.0765L33.7552 36.8443C34.6014 37.6905 35.9732 37.6905 36.8194 36.8443C37.6655 35.9982 37.6655 34.6264 36.8194 33.7802L29.0516 26.0124L36.8194 18.2446C37.6655 17.3985 37.6655 16.0266 36.8194 15.1805C35.9732 14.3344 34.6014 14.3344 33.7552 15.1805L25.9875 22.9483L18.2196 15.1805C17.3735 14.3343 16.0016 14.3343 15.1555 15.1805Z" fill="#0A0B0C"/>
</svg>
