<svg width="51" height="49" viewBox="0 0 51 49" fill="none" xmlns="http://www.w3.org/2000/svg">
<path fill-rule="evenodd" clip-rule="evenodd" d="M7.41362 12.2579C5.87158 14.7977 5.36408 18.322 6.31153 21.9632C6.65247 23.2735 7.64367 24.958 9.21455 26.8969C10.7549 28.7982 12.7211 30.7857 14.8035 32.6927C18.9326 36.4739 23.3762 39.8094 25.5 41.3519C27.6238 39.8094 32.0674 36.4739 36.1964 32.6927C38.2789 30.7857 40.245 28.7982 41.7854 26.8969C43.3563 24.958 44.3475 23.2735 44.6884 21.9632C45.6359 18.322 45.1284 14.7978 43.5863 12.2579C42.0812 9.77887 39.5679 8.16668 36.125 8.16668C33.1296 8.16668 31.0184 10.2947 29.5256 13.1631C28.8084 14.5413 28.3208 15.9402 28.0123 17.0074C27.8591 17.5371 27.7528 17.9756 27.6857 18.2764C27.4479 19.3426 26.1678 19.3958 25.5 19.3958C24.8321 19.3958 23.5498 19.3327 23.3142 18.2764C23.2471 17.9756 23.1408 17.5371 22.9876 17.0074C22.6791 15.9402 22.1915 14.5413 21.4743 13.1631C19.9815 10.2947 17.8703 8.16668 14.8749 8.16668C11.432 8.16668 8.91874 9.77887 7.41362 12.2579ZM25.5 11.7807C25.5725 11.6331 25.6472 11.4851 25.7243 11.3369C27.4191 8.08036 30.6204 4.08334 36.125 4.08334C41.1821 4.08334 45.0438 6.55448 47.2574 10.2004C49.4341 13.7856 49.9891 18.428 48.8115 22.9535C48.2536 25.0976 46.8252 27.3241 45.1391 29.4051C43.4225 31.5238 41.2944 33.6652 39.1287 35.6485C34.7951 39.617 30.1658 43.0837 28.0096 44.6478C26.5207 45.728 24.4793 45.728 22.9903 44.6478C20.8342 43.0837 16.2049 39.617 11.8713 35.6485C9.70556 33.6652 7.57742 31.5238 5.86085 29.4051C4.17477 27.3241 2.74632 25.0976 2.18842 22.9535C1.01087 18.428 1.56586 13.7856 3.74255 10.2004C5.95616 6.55448 9.81784 4.08334 14.8749 4.08334C20.3795 4.08334 23.5808 8.08035 25.2756 11.3369C25.3527 11.4851 25.4275 11.6331 25.5 11.7807Z" fill="#EC9A29"/>
</svg>
