<svg width="82" height="82" viewBox="0 0 82 82" fill="none" xmlns="http://www.w3.org/2000/svg">
<path d="M2.62688 40.9679C2.62688 43.9595 5.052 46.3846 8.04355 46.3846L35.507 46.3846L35.507 73.848C35.507 76.8396 37.9321 79.2647 40.9236 79.2647C43.9152 79.2647 46.3403 76.8396 46.3403 73.848L46.3403 46.3846L73.8036 46.3846C76.7952 46.3846 79.2203 43.9595 79.2203 40.968C79.2203 37.9764 76.7952 35.5513 73.8036 35.5513L46.3403 35.5513L46.3403 8.08796C46.3403 5.09642 43.9152 2.6713 40.9236 2.67129C37.9321 2.6713 35.507 5.09643 35.507 8.08797L35.507 35.5513L8.04355 35.5513C5.052 35.5513 2.62688 37.9764 2.62688 40.9679Z" fill="#161C1D"/>
</svg>
