<svg width="35" height="39" viewBox="0 0 35 39" fill="none" xmlns="http://www.w3.org/2000/svg">
<path d="M8.95793 23.1645C8.95793 22.2089 9.72277 21.4342 10.6663 21.4342C11.6097 21.4342 12.3746 22.2089 12.3746 23.1645C12.3746 24.1202 11.6097 24.8948 10.6663 24.8948C9.72277 24.8948 8.95793 24.1202 8.95793 23.1645Z" fill="#EC9A29"/>
<path d="M10.6663 28.3555C9.72277 28.3555 8.95793 29.1302 8.95793 30.0858C8.95793 31.0415 9.72277 31.8162 10.6663 31.8162C11.6097 31.8162 12.3746 31.0415 12.3746 30.0858C12.3746 29.1302 11.6097 28.3555 10.6663 28.3555Z" fill="#EC9A29"/>
<path d="M15.7913 23.1645C15.7913 22.2089 16.5561 21.4342 17.4996 21.4342C18.4431 21.4342 19.2079 22.2089 19.2079 23.1645C19.2079 24.1202 18.4431 24.8948 17.4996 24.8948C16.5561 24.8948 15.7913 24.1202 15.7913 23.1645Z" fill="#EC9A29"/>
<path d="M17.4996 28.3555C16.5561 28.3555 15.7913 29.1302 15.7913 30.0858C15.7913 31.0415 16.5561 31.8162 17.4996 31.8162C18.4431 31.8162 19.2079 31.0415 19.2079 30.0858C19.2079 29.1302 18.4431 28.3555 17.4996 28.3555Z" fill="#EC9A29"/>
<path d="M22.6246 23.1645C22.6246 22.2089 23.3894 21.4342 24.3329 21.4342C25.2764 21.4342 26.0413 22.2089 26.0413 23.1645C26.0413 24.1202 25.2764 24.8948 24.3329 24.8948C23.3894 24.8948 22.6246 24.1202 22.6246 23.1645Z" fill="#EC9A29"/>
<path d="M24.3329 28.3555C23.3894 28.3555 22.6246 29.1302 22.6246 30.0858C22.6246 31.0415 23.3894 31.8162 24.3329 31.8162C25.2764 31.8162 26.0413 31.0415 26.0413 30.0858C26.0413 29.1302 25.2764 28.3555 24.3329 28.3555Z" fill="#EC9A29"/>
<path fill-rule="evenodd" clip-rule="evenodd" d="M7.24959 2.40057C7.24959 1.44494 8.01444 0.670242 8.95793 0.670242C9.90141 0.670242 10.6663 1.44494 10.6663 2.40057V4.1309H24.3329V2.40057C24.3329 1.44494 25.0978 0.670242 26.0413 0.670242C26.9847 0.670242 27.7496 1.44494 27.7496 2.40057V4.1309H29.4579C32.2884 4.1309 34.5829 6.45499 34.5829 9.32189V33.5465C34.5829 36.4134 32.2884 38.7375 29.4579 38.7375H5.54126C2.7108 38.7375 0.41626 36.4134 0.41626 33.5465V9.32189C0.41626 6.45498 2.7108 4.1309 5.54126 4.1309H7.24959V2.40057ZM24.3329 7.59156V9.32189C24.3329 10.2775 25.0978 11.0522 26.0413 11.0522C26.9847 11.0522 27.7496 10.2775 27.7496 9.32189V7.59156H29.4579C30.4014 7.59156 31.1663 8.36625 31.1663 9.32189V14.5129H3.83293V9.32189C3.83293 8.36625 4.59777 7.59156 5.54126 7.59156H7.24959V9.32189C7.24959 10.2775 8.01444 11.0522 8.95793 11.0522C9.90141 11.0522 10.6663 10.2775 10.6663 9.32189V7.59156H24.3329ZM3.83293 17.9735V33.5465C3.83293 34.5021 4.59777 35.2768 5.54126 35.2768H29.4579C30.4014 35.2768 31.1663 34.5021 31.1663 33.5465V17.9735H3.83293Z" fill="#EC9A29"/>
</svg>
