<svg width="46" height="46" viewBox="0 0 46 46" fill="none" xmlns="http://www.w3.org/2000/svg">
<path fill-rule="evenodd" clip-rule="evenodd" d="M6.51107 22.2937C6.51107 31.8206 14.2342 39.5437 23.7611 39.5437C30.0645 39.5437 35.5841 36.1606 38.5937 31.1075C32.0631 33.2137 24.3267 32.1134 19.1338 26.9205C13.8998 21.6864 12.8916 13.9613 15.0786 7.46147C9.9801 10.502 6.51107 16.0796 6.51107 22.2937ZM40.6085 26.0382C42.1907 25.1123 44.5721 26.1601 44.0834 27.927C41.6193 36.8359 33.4541 43.377 23.7611 43.377C12.1171 43.377 2.67773 33.9377 2.67773 22.2937C2.67773 12.6284 9.45947 4.3287 18.4294 1.91666C20.2005 1.44039 21.2071 3.82143 20.2479 5.3846C16.6756 11.2059 16.928 19.2935 21.8444 24.2099C26.703 29.0685 34.7617 29.4596 40.6085 26.0382Z" fill="#EC9A29"/>
</svg>
