<svg width="52" height="52" viewBox="0 0 52 52" fill="none" xmlns="http://www.w3.org/2000/svg">
<path fill-rule="evenodd" clip-rule="evenodd" d="M24.9166 2.16666C23.72 2.16666 22.7499 3.13671 22.7499 4.33332V6.49999H21.6666C15.6836 6.49999 10.8332 11.3495 10.8332 17.3328V23.8333C10.8332 25.4317 10.3288 27.2398 9.52759 29.0654C8.73515 30.8711 7.71056 32.5636 6.80632 33.8952C5.16066 36.3186 6.17959 40.1485 9.54547 40.7556C11.7464 41.1525 14.8568 41.6249 18.5175 41.9308C18.5131 42.0366 18.5109 42.1431 18.5109 42.25C18.5109 46.4381 21.906 49.8333 26.0942 49.8333C30.2824 49.8333 33.6775 46.4381 33.6775 42.25C33.6775 42.1377 33.6751 42.026 33.6703 41.9149C37.2495 41.6087 40.2912 41.1457 42.4543 40.7556C45.8202 40.1485 46.8391 36.3186 45.1935 33.8952C44.2892 32.5636 43.2646 30.8711 42.4722 29.0654C41.671 27.2398 41.1666 25.4317 41.1666 23.8333V17.3328C41.1666 11.3495 36.3161 6.49999 30.3332 6.49999H29.2499V4.33332C29.2499 3.13671 28.2799 2.16666 27.0833 2.16666H24.9166ZM25.9999 42.25C27.1076 42.25 28.193 42.2279 29.2494 42.1882C29.2664 43.9309 27.8506 45.4057 26.0942 45.4057C24.3418 45.4057 22.924 43.9353 22.9389 42.1951C23.9358 42.2305 24.9579 42.25 25.9999 42.25ZM21.6666 10.8333C18.0765 10.8333 15.1666 13.7431 15.1666 17.3328V23.8333C15.1666 26.2674 14.4201 28.7004 13.4956 30.8069C12.5623 32.9334 11.3864 34.8641 10.3912 36.3296C10.3691 36.3621 10.3588 36.3934 10.3553 36.4245C10.3522 36.4524 10.3548 36.4785 10.3602 36.4993C13.7895 37.1157 19.5009 37.9167 25.9999 37.9167C32.4989 37.9167 38.2103 37.1157 41.6396 36.4993C41.6449 36.4785 41.6476 36.4524 41.6445 36.4245C41.641 36.3934 41.6307 36.3621 41.6085 36.3296C40.6134 34.8641 39.4374 32.9334 38.5042 30.8069C37.5797 28.7004 36.8332 26.2674 36.8332 23.8333V17.3328C36.8332 13.7431 33.9232 10.8333 30.3332 10.8333H21.6666Z" fill="#EC9A29"/>
</svg>
