<svg width="397" height="183" viewBox="0 0 397 183" fill="none" xmlns="http://www.w3.org/2000/svg">
<g clip-path="url(#clip0_23_77)">
<path d="M277.815 38.4549C277.782 38.4604 277.732 38.4686 277.672 38.4783C276.496 38.668 269.388 39.7374 262.221 37.0756C259.185 35.9479 260.221 35.6669 253.459 31.7465C245.532 27.1503 243.498 27.1824 242.907 25.0393C241.729 20.7598 248.023 14.0324 252.189 14.4753C253.286 14.592 254.461 15.2296 256.288 14.7972C256.689 14.7022 258.446 14.2864 259.303 12.8683C260.067 11.6031 259.42 10.6905 259.727 9.65295C260.534 6.92944 267.258 5.57026 273.154 6.53059C276.544 7.08295 279.182 8.59089 284.318 11.5842C293.258 16.7942 297.728 19.3992 298.733 23.3904C299.685 27.1733 297.4 28.8033 299.062 32.8528C300.609 36.6233 303.068 36.3715 303.913 39.4217C305.275 44.3301 300.222 49.717 298.118 51.9611C295.81 54.4214 293.604 55.7717 290.674 57.5644C286.997 59.8144 285.158 60.9395 282.948 60.825C278.94 60.6175 267.031 61.3239 266.875 58.0901C266.817 56.8783 252.373 57.8705 259.486 44.8231C260.358 43.2228 277.447 44.9322 277.673 44.0128" fill="#2F2E41"/>
<path d="M114.906 168.34L98.2551 169.81L77.5755 180.05L74.165 168.174L71.1866 153.139L77.3917 146.013L88.1102 153.139L110.521 150.764L114.906 168.34Z" fill="#FFB6B6"/>
<path d="M251.81 118.936L264.477 179.741L172.396 154.089L112.957 170.24L104.188 151.714L169.96 124.637L224.039 125.587L251.81 118.936Z" fill="#2F2E41"/>
<path d="M75.7069 152.495L73.7581 153.921L85.8578 176.25C85.8578 176.25 77.6844 180.899 75.2484 180.899C72.8123 180.899 64.5012 134.919 65.4756 128.128C66.45 121.337 72.7836 123.518 72.7836 123.518L86.4556 151.68L75.7069 152.495Z" fill="#2F2E41"/>
<path d="M345.304 144.784C346.581 144.65 347.079 146.355 345.925 146.906C344.255 147.703 342.683 148.707 341.864 149.897C339.769 152.939 336.875 151.18 336.464 150.907C335.787 152.005 335.454 153.115 335.311 154.102L336.298 157.29C336.341 157.504 336.296 157.284 336.298 157.29L337.055 165.406C337.573 167.377 337.182 169.275 337.055 169.833L337.811 180.161L335.696 180.178L335.468 170.073L335.424 170.06C335.425 170.056 335.441 170.001 335.464 169.902L335.37 165.727C335.179 165.012 334.878 164.26 334.418 163.514C334.007 163.787 331.113 165.545 329.019 162.504C328.199 161.314 326.628 160.31 324.957 159.512C323.803 158.962 324.301 157.257 325.578 157.391C326.66 157.505 327.841 157.675 329.096 157.924C334.419 158.981 334.53 162.505 334.483 163.314L334.519 163.292C334.883 163.86 335.153 164.433 335.353 164.993L335.176 157.131C335.066 156.574 333.836 155.692 334.028 154.339L334.851 142.729C334.56 143.215 334.238 143.531 333.934 143.497C333.208 143.416 332.842 141.367 332.934 139.875C332.032 141.095 330.32 142.512 329.695 142.105C329.223 141.796 329.503 140.528 330.019 139.375C328.944 140.006 327.754 140.421 327.385 140.02C326.881 139.473 328.088 137.607 329.202 136.565C327.711 136.701 325.816 136.469 325.691 135.808C325.589 135.263 326.717 134.575 327.925 134.132C326.712 133.821 325.578 133.277 325.615 132.74C325.669 131.974 328.08 131.511 329.623 131.613C329.712 131.619 329.795 131.627 329.874 131.636C328.553 130.855 326.927 129.243 327.307 128.598C327.591 128.117 328.907 128.303 330.122 128.727C329.403 127.724 328.898 126.595 329.283 126.208C329.831 125.658 331.978 126.824 333.088 127.874C333.191 127.972 333.281 128.065 333.36 128.154C333.356 128.078 333.354 127.998 333.354 127.912C333.354 126.405 333.992 124.091 334.78 124.091C335.332 124.091 335.811 125.231 336.047 126.432C336.582 125.288 337.363 124.237 337.914 124.374C338.572 124.537 338.686 126.343 338.46 127.774C339.622 126.856 341.324 126.025 341.803 126.506C342.188 126.893 341.683 128.022 340.964 129.024C342.179 128.601 343.496 128.415 343.779 128.896C344.087 129.418 343.08 130.574 341.984 131.41C343.437 131.475 345.121 131.903 345.165 132.541C345.203 133.079 344.069 133.622 342.856 133.934C344.063 134.377 345.192 135.064 345.089 135.609C344.965 136.271 343.069 136.502 341.579 136.367C342.692 137.409 343.9 139.275 343.396 139.822C343.026 140.223 341.836 139.808 340.762 139.176C341.278 140.33 341.558 141.598 341.085 141.906C340.494 142.292 338.927 141.041 337.996 139.872C338.133 141.365 337.814 143.465 337.081 143.563C336.518 143.638 335.865 142.507 335.467 141.311C335.347 141.683 335.204 142.047 335.046 142.367L335.29 153.169C335.492 152.369 335.828 151.522 336.363 150.685L336.399 150.707C336.353 149.899 336.463 146.374 341.786 145.318C343.042 145.068 344.222 144.898 345.304 144.784ZM335.6 166.925L335.64 168.692C335.677 168.197 335.681 167.593 335.6 166.925Z" fill="#F2F2F2"/>
<path d="M0.900513 179.109H396.1C396.599 179.109 397 179.5 397 179.987C397 180.474 396.599 180.865 396.1 180.865H0.900513C0.401093 180.865 3.05176e-05 180.474 3.05176e-05 179.987C3.05176e-05 179.5 0.401093 179.109 0.900513 179.109Z" fill="#3F3D56"/>
<path d="M289.508 66.0409L283.175 44.1892L267.584 44.6642L262.225 62.2406L289.508 66.0409Z" fill="#FFB6B6"/>
<path d="M286.158 59.7939C286.158 59.7939 290.786 58.6063 299.556 69.5322C308.325 80.458 304.428 158.364 304.428 158.364L240.848 144.351L257.485 88.5016L260.823 58.8438L286.158 59.7939Z" fill="#EC9A29"/>
<path d="M186.97 79.8593L207.886 91.6671L203.292 99.9026L181.963 88.5229C179.673 88.4109 177.444 87.7658 175.462 86.6415C170.461 83.8938 167.862 79.1532 169.655 76.0513C171.447 72.9494 176.953 72.6617 181.951 75.409C183.965 76.4803 185.686 78.0063 186.97 79.8593Z" fill="#FFB6B6"/>
<path d="M287.206 81.6951L243.645 120.598L183.658 92.2996L191.183 77.7163L234.025 94.2766L275.103 62.0329L287.206 81.6951Z" fill="#EC9A29"/>
<path d="M301.505 149.814L283.965 122.736C283.965 122.736 248.887 88.5337 235.732 91.3839C222.578 94.2341 206.987 147.913 206.987 147.913L220.142 155.989L243.527 124.162C243.527 124.162 245.963 167.865 253.208 177.366C260.453 186.867 289.812 182.591 300.53 177.366C311.249 172.14 301.505 149.814 301.505 149.814Z" fill="#2F2E41"/>
<path d="M221.116 150.289L219.167 159.314L220.142 165.015L216.731 171.665L189.935 174.516L188.474 162.165L202.603 155.039L212.834 145.063L221.116 150.289Z" fill="#FFB6B6"/>
<path d="M191.884 169.765L193.346 171.665L221.408 163.78C221.408 163.78 220.142 175.941 220.142 178.316C220.142 180.691 173.858 180.691 166.893 179.741C159.928 178.791 162.165 172.615 162.165 172.615L191.047 159.285L191.884 169.765Z" fill="#2F2E41"/>
<path d="M223.875 86.0671L200.147 88.0872L186.19 83.9322L178.288 74.5214L171.826 52.9309L208.684 36.7018L209.357 36.4062L214.465 36.8853L223.663 84.9535L223.875 86.0671Z" fill="#0B485B"/>
<path opacity="0.2" d="M223.663 84.9535L217.285 85.7982L208.684 36.7018L209.357 36.4062L214.465 36.8853L223.663 84.9535Z" fill="#241F20"/>
<path d="M221.274 89.4091C222.201 89.3375 223.044 88.8751 223.588 88.1403C224.133 87.4055 224.317 86.4791 224.095 85.5986L222.894 80.8347L222.784 80.8491C222.719 80.8576 216.166 81.7097 208.617 82.0195C198.642 82.429 191.466 81.7102 187.866 79.9406C179 75.58 173.871 52.0384 173.821 51.801L173.797 51.6911L171.869 51.9515C170.997 52.0696 170.231 52.5165 169.714 53.2101C169.197 53.902 168.996 54.747 169.148 55.5894C170.335 62.1726 174.22 78.1606 184.615 84.4236C184.717 84.4849 184.818 84.5449 184.922 84.6049C195.354 90.6596 213.782 89.9864 221.274 89.4091Z" fill="#3F3D58"/>
<path d="M193.836 82.3451C195.9 83.3214 197.694 84.7656 199.067 86.5567L220.538 97.3775L216.352 105.817L194.49 95.4434C192.197 95.4381 189.939 94.8975 187.904 93.8668C182.774 91.355 179.946 86.7407 181.585 83.559C183.224 80.3772 188.709 79.8335 193.836 82.3451Z" fill="#FFB6B6"/>
<path d="M299.279 83.7248L257.672 124.611L196.367 99.1369L203.17 84.22L246.774 98.7673L286.227 64.6484L299.279 83.7248Z" fill="#EC9A29"/>
<path d="M274.563 52.8221C262.093 52.8221 251.984 42.9656 251.984 30.8069C251.984 18.6483 262.093 8.79172 274.563 8.79172C287.033 8.79172 297.142 18.6483 297.142 30.8069C297.142 42.9656 287.033 52.8221 274.563 52.8221Z" fill="#FFB6B6"/>
<path d="M281.836 32.2316C281.803 32.2371 281.753 32.2453 281.693 32.255C280.517 32.4447 273.409 33.514 266.243 30.8522C263.207 29.7246 264.242 29.4436 257.481 25.5232C249.553 20.927 247.519 20.9591 246.929 18.816C245.75 14.5365 252.044 7.80908 256.21 8.25202C257.307 8.36864 258.482 9.00623 260.309 8.5739C260.71 8.47892 262.467 8.06312 263.324 6.64494C264.088 5.37982 263.441 4.4672 263.748 3.42962C264.555 0.706113 271.279 -0.653065 277.175 0.307267C280.566 0.859622 283.203 2.36757 288.339 5.36091C297.279 10.5709 301.749 13.1759 302.754 17.1671C303.706 20.95 301.421 22.58 303.083 26.6294C304.631 30.4 307.089 30.1482 307.935 33.1984C309.296 38.1067 304.244 43.4937 302.139 45.7378C299.832 48.1981 297.625 49.5484 294.695 51.341C291.018 53.5911 289.179 54.7161 286.969 54.6017C282.961 54.3941 278.975 50.8528 278.819 47.6191C278.761 46.4072 279.28 46.0437 280.563 41.8775C281.098 40.1418 281.469 38.7089 281.694 37.7895" fill="#2F2E41"/>
</g>
<defs>
<clipPath id="clip0_23_77">
<rect width="397" height="183" fill="white" transform="matrix(-1 0 0 1 397 0)"/>
</clipPath>
</defs>
</svg>
